<?xml version="1.0" encoding="UTF-8"?>
<svg xmlns="http://www.w3.org/2000/svg"
     xmlns:xlink="http://www.w3.org/1999/xlink"
     xmlns:gadfly="http://www.gadflyjl.org/ns"
     version="1.2"
     width="140mm" height="80mm" viewBox="0 0 140 80"
     stroke="none"
     fill="#000000"
     stroke-width="0.3"
     font-size="3.88"
>
<defs>
  <marker id="arrow" markerWidth="15" markerHeight="7" refX="5" refY="3.5" orient="auto" markerUnits="strokeWidth">
    <path d="M0,0 L15,3.5 L0,7 z" stroke="context-stroke" fill="context-stroke"/>
  </marker>
</defs>
<g stroke-width="1.13" fill="#000000" fill-opacity="0.000" stroke="#D3D3D3" id="img-faee7cf5-1">
  <g transform="translate(31.11,62.22)">
    <path fill="none" d="M-15.55,-8.88 L15.55,8.88 " class="primitive"/>
  </g>
  <g transform="translate(31.11,40)">
    <path fill="none" d="M-15.55,8.88 L15.55,-8.88 " class="primitive"/>
  </g>
  <g transform="translate(70,40)">
    <path fill="none" d="M-15.55,-8.88 L15.55,8.88 " class="primitive"/>
  </g>
  <g transform="translate(70,17.78)">
    <path fill="none" d="M-15.55,8.88 L15.55,-8.88 " class="primitive"/>
  </g>
  <g transform="translate(108.89,62.22)">
    <path fill="none" d="M-15.55,-8.88 L15.55,8.88 " class="primitive"/>
  </g>
  <g transform="translate(108.89,40)">
    <path fill="none" d="M-15.55,8.88 L15.55,-8.88 " class="primitive"/>
  </g>
</g>
<g stroke-width="1.13" stroke="#D3D3D3" id="img-faee7cf5-2">
  <g transform="translate(44.07,69.63)">
    <path fill="none" d="M0.12,-1.54 L2.58,1.48 -2.7,0.07 " class="primitive"/>
  </g>
  <g transform="translate(44.07,32.59)">
    <path fill="none" d="M-2.7,-0.07 L2.58,-1.48 0.12,1.54 " class="primitive"/>
  </g>
  <g transform="translate(82.96,47.41)">
    <path fill="none" d="M0.12,-1.54 L2.58,1.48 -2.7,0.07 " class="primitive"/>
  </g>
  <g transform="translate(82.96,10.37)">
    <path fill="none" d="M-2.7,-0.07 L2.58,-1.48 0.12,1.54 " class="primitive"/>
  </g>
  <g transform="translate(121.85,69.63)">
    <path fill="none" d="M0.12,-1.54 L2.58,1.48 -2.7,0.07 " class="primitive"/>
  </g>
  <g transform="translate(121.85,32.59)">
    <path fill="none" d="M-2.7,-0.07 L2.58,-1.48 0.12,1.54 " class="primitive"/>
  </g>
</g>
<g font-size="4" stroke="#000000" stroke-opacity="0.000" fill="#000000" id="img-faee7cf5-3">
</g>
<g stroke-width="0" stroke="#000000" stroke-opacity="0.000" fill="#40E0D0" id="img-faee7cf5-4">
  <g transform="translate(11.67,51.11)">
    <circle cx="0" cy="0" r="5.29" class="primitive"/>
  </g>
  <g transform="translate(50.56,73.33)">
    <circle cx="0" cy="0" r="5.29" class="primitive"/>
  </g>
  <g transform="translate(50.56,28.89)">
    <circle cx="0" cy="0" r="5.29" class="primitive"/>
  </g>
  <g transform="translate(89.44,51.11)">
    <circle cx="0" cy="0" r="5.29" class="primitive"/>
  </g>
  <g transform="translate(128.33,73.33)">
    <circle cx="0" cy="0" r="5.29" class="primitive"/>
  </g>
  <g transform="translate(128.33,28.89)">
    <circle cx="0" cy="0" r="5.29" class="primitive"/>
  </g>
  <g transform="translate(89.44,6.67)">
    <circle cx="0" cy="0" r="5.29" class="primitive"/>
  </g>
</g>
<g font-size="4" stroke="#000000" stroke-opacity="0.000" fill="#000000" id="img-faee7cf5-5">
  <g transform="translate(11.67,51.11)">
    <g class="primitive">
      <text text-anchor="middle" dy="0.35em">ftr: 2 splitval: 0.2809650654777357</text>
    </g>
  </g>
  <g transform="translate(50.56,73.33)">
    <g class="primitive">
      <text text-anchor="middle" dy="0.35em">ftr: -1 splitval: 0.0</text>
    </g>
  </g>
  <g transform="translate(50.56,28.89)">
    <g class="primitive">
      <text text-anchor="middle" dy="0.35em">ftr: 1 splitval: 2.8681138054268804</text>
    </g>
  </g>
  <g transform="translate(89.44,51.11)">
    <g class="primitive">
      <text text-anchor="middle" dy="0.35em">ftr: 2 splitval: 1.2448667826901936</text>
    </g>
  </g>
  <g transform="translate(128.33,73.33)">
    <g class="primitive">
      <text text-anchor="middle" dy="0.35em">ftr: -1 splitval: 0.0</text>
    </g>
  </g>
  <g transform="translate(128.33,28.89)">
    <g class="primitive">
      <text text-anchor="middle" dy="0.35em">ftr: -1 splitval: 0.0</text>
    </g>
  </g>
  <g transform="translate(89.44,6.67)">
    <g class="primitive">
      <text text-anchor="middle" dy="0.35em">ftr: -1 splitval: 0.0</text>
    </g>
  </g>
</g>
</svg>
