<?xml version="1.0" encoding="UTF-8"?>
<svg xmlns="http://www.w3.org/2000/svg"
     xmlns:xlink="http://www.w3.org/1999/xlink"
     xmlns:gadfly="http://www.gadflyjl.org/ns"
     version="1.2"
     width="141.42mm" height="100mm" viewBox="0 0 141.42 100"
     stroke="none"
     fill="#000000"
     stroke-width="0.3"
     font-size="3.88"
>
<defs>
  <marker id="arrow" markerWidth="15" markerHeight="7" refX="5" refY="3.5" orient="auto" markerUnits="strokeWidth">
    <path d="M0,0 L15,3.5 L0,7 z" stroke="context-stroke" fill="context-stroke"/>
  </marker>
</defs>
<g stroke-width="1.13" fill="#000000" fill-opacity="0.000" stroke="#D3D3D3" id="img-0b12ddc8-1">
  <g transform="translate(41.25,59.26)">
    <path fill="none" d="M-24.37,-7.66 L24.37,7.66 " class="primitive"/>
  </g>
  <g transform="translate(41.25,40.74)">
    <path fill="none" d="M-24.37,7.66 L24.37,-7.66 " class="primitive"/>
  </g>
  <g transform="translate(100.17,80.09)">
    <path fill="none" d="M-24.6,-9.66 L24.6,9.66 " class="primitive"/>
  </g>
  <g transform="translate(100.17,66.2)">
    <path fill="none" d="M-23.93,1.88 L23.93,-1.88 " class="primitive"/>
  </g>
  <g transform="translate(100.17,33.8)">
    <path fill="none" d="M-23.93,-1.88 L23.93,1.88 " class="primitive"/>
  </g>
  <g transform="translate(100.17,19.91)">
    <path fill="none" d="M-24.6,9.66 L24.6,-9.66 " class="primitive"/>
  </g>
</g>
<g stroke-width="1.13" stroke="#D3D3D3" id="img-0b12ddc8-2">
  <g transform="translate(62.25,65.86)">
    <path fill="none" d="M-0.87,-1.83 L3.37,1.06 -2.51,0.77 " class="primitive"/>
  </g>
  <g transform="translate(62.25,34.14)">
    <path fill="none" d="M-2.51,-0.77 L3.37,-1.06 -0.87,1.83 " class="primitive"/>
  </g>
  <g transform="translate(121.54,88.49)">
    <path fill="none" d="M-0.63,-1.88 L3.23,1.27 -2.59,0.61 " class="primitive"/>
  </g>
  <g transform="translate(120.43,64.61)">
    <path fill="none" d="M-2.06,-1.27 L3.67,-0.29 -1.61,1.56 " class="primitive"/>
  </g>
  <g transform="translate(120.43,35.39)">
    <path fill="none" d="M-1.61,-1.56 L3.67,0.29 -2.06,1.27 " class="primitive"/>
  </g>
  <g transform="translate(121.54,11.51)">
    <path fill="none" d="M-2.59,-0.61 L3.23,-1.27 -0.63,1.88 " class="primitive"/>
  </g>
</g>
<g font-size="4" stroke="#000000" stroke-opacity="0.000" fill="#000000" id="img-0b12ddc8-3">
</g>
<g stroke-width="0" stroke="#000000" stroke-opacity="0.000" fill="#40E0D0" id="img-0b12ddc8-4">
  <g transform="translate(11.79,50)">
    <circle cx="0" cy="0" r="5.35" class="primitive"/>
  </g>
  <g transform="translate(70.71,68.52)">
    <circle cx="0" cy="0" r="5.35" class="primitive"/>
  </g>
  <g transform="translate(129.64,91.67)">
    <circle cx="0" cy="0" r="5.35" class="primitive"/>
  </g>
  <g transform="translate(129.64,63.89)">
    <circle cx="0" cy="0" r="5.35" class="primitive"/>
  </g>
  <g transform="translate(70.71,31.48)">
    <circle cx="0" cy="0" r="5.35" class="primitive"/>
  </g>
  <g transform="translate(129.64,36.11)">
    <circle cx="0" cy="0" r="5.35" class="primitive"/>
  </g>
  <g transform="translate(129.64,8.33)">
    <circle cx="0" cy="0" r="5.35" class="primitive"/>
  </g>
</g>
<g font-size="4" stroke="#000000" stroke-opacity="0.000" fill="#000000" id="img-0b12ddc8-5">
  <g transform="translate(11.79,50)">
    <g class="primitive">
      <text text-anchor="middle" dy="0.35em">ftr: 1 splitval: 0.5</text>
    </g>
  </g>
  <g transform="translate(70.71,68.52)">
    <g class="primitive">
      <text text-anchor="middle" dy="0.35em">ftr: 2 splitval: 0.5</text>
    </g>
  </g>
  <g transform="translate(129.64,91.67)">
    <g class="primitive">
      <text text-anchor="middle" dy="0.35em">ftr: -1 splitval: 0.0</text>
    </g>
  </g>
  <g transform="translate(129.64,63.89)">
    <g class="primitive">
      <text text-anchor="middle" dy="0.35em">ftr: -1 splitval: 0.0</text>
    </g>
  </g>
  <g transform="translate(70.71,31.48)">
    <g class="primitive">
      <text text-anchor="middle" dy="0.35em">ftr: 2 splitval: 0.5</text>
    </g>
  </g>
  <g transform="translate(129.64,36.11)">
    <g class="primitive">
      <text text-anchor="middle" dy="0.35em">ftr: -1 splitval: 0.0</text>
    </g>
  </g>
  <g transform="translate(129.64,8.33)">
    <g class="primitive">
      <text text-anchor="middle" dy="0.35em">ftr: -1 splitval: 0.0</text>
    </g>
  </g>
</g>
</svg>
